<svg xmlns="http://www.w3.org/2000/svg" xmlns:xlink="http://www.w3.org/1999/xlink" version="1.1" width="8.5pt" height="8.5pt" viewBox="0 0 8.5 8.5">
<path transform="matrix(-1,0,0,-1,7.75,9.25)" d="M3.5 .75C5.847271 .75 7.75 2.652803 7.75 5H6.25C6.25 3.481214 5.018828 2.25 3.5 2.25V.75ZM7.75 5C7.75 7.347197 5.847271 9.25 3.5 9.25V7.75C5.018828 7.75 6.25 6.518786 6.25 5H7.75ZM3.5 9.25C1.152728 9.25-.75 7.347197-.75 5H.75C.75 6.518786 1.981172 7.75 3.5 7.75V9.25ZM-.75 5C-.75 2.652803 1.152728 .75 3.5 .75V2.25C1.981172 2.25 .75 3.481214 .75 5H-.75Z" fill="#ffffff"/>
</svg>
