<svg width="21" height="25" viewBox="0 0 21 25" fill="none" xmlns="http://www.w3.org/2000/svg">
<path d="M17.3871 23.0723C16.0503 24.3682 14.5907 24.1636 13.1856 23.5498C11.6987 22.9223 10.3345 22.895 8.76578 23.5498C6.80142 24.3955 5.76467 24.15 4.59151 23.0723C-2.06548 16.2107 -1.0833 5.76139 6.47403 5.37944C8.31561 5.47493 9.5979 6.3889 10.6756 6.47075C12.2853 6.14335 13.8267 5.2021 15.5455 5.32487C17.6054 5.48857 19.1605 6.30705 20.1836 7.78032C15.9275 10.3313 16.937 15.9379 20.8384 17.5066C20.0608 19.5528 19.0514 21.5854 17.3735 23.0859L17.3871 23.0723ZM10.5392 5.29759C10.3345 2.25556 12.8036 -0.254455 15.641 -0.5C16.0366 3.01948 12.449 5.63862 10.5392 5.29759Z" fill="white"/>
</svg>
