<svg xmlns="http://www.w3.org/2000/svg" xmlns:xlink="http://www.w3.org/1999/xlink" version="1.1" width="20pt" height="21.538025pt" viewBox="0 0 20 21.538025">
<path transform="matrix(1,0,0,-1,5,10.768921)" d="M8.684423 9.202618C7.748872 10.212687 6.442177 10.768921 4.999909 10.768921 3.549949 10.768921 2.238927 10.216052 1.307702 9.212234 .366382 8.197357-.092259 6.818069 .015431 5.328687 .228886 2.390306 2.464882-.000011 4.999909-.000011 7.534935-.000011 9.767086 2.389827 9.983907 5.327726 10.093039 6.803647 9.631513 8.18005 8.684423 9.202618Z" fill="#101010"/>
<path transform="matrix(1,0,0,-1,0,21.540772)" d="M18.461306 .002884H1.538694C1.317193 .000003 1.097834 .046535 .896579 .139096 .695324 .231657 .517233 .367919 .375265 .537966 .062773 .911513-.063185 1.421595 .030082 1.937446 .43584 4.188345 1.702151 6.079159 3.692482 7.406526 5.460702 8.584859 7.700544 9.233398 10 9.233398 12.299457 9.233398 14.539298 8.584378 16.307518 7.406526 18.29785 6.079639 19.56416 4.188827 19.969918 1.937927 20.063185 1.422076 19.937228 .911995 19.624735 .538447 19.482813 .368312 19.304743 .23196 19.103486 .139315 18.902228 .04667 18.682847 .000062 18.461306 .002884Z" fill="#101010"/>
</svg>
