<svg width="21" height="21" viewBox="0 0 21 21" fill="none" xmlns="http://www.w3.org/2000/svg">
<path d="M20.2295 8.66484H10.703V12.5804H16.1452C15.9105 13.846 15.1986 14.9165 14.1255 15.6337C13.2185 16.2401 12.0609 16.5987 10.7004 16.5987C8.06631 16.5987 5.83828 14.8189 5.04199 12.4274C4.8416 11.821 4.72558 11.1724 4.72558 10.5053C4.72558 9.83818 4.8416 9.18955 5.04199 8.58311C5.84092 6.19424 8.06894 4.41445 10.703 4.41445C12.1875 4.41445 13.519 4.92598 14.5685 5.92793L17.4688 3.0249C15.7154 1.39014 13.4294 0.388184 10.703 0.388184C6.75058 0.388184 3.33076 2.65576 1.66699 5.96221C0.981444 7.32803 0.591209 8.87314 0.591209 10.5079C0.591209 12.1427 0.981444 13.6852 1.66699 15.051C3.33076 18.3574 6.75058 20.625 10.703 20.625C13.4347 20.625 15.7233 19.718 17.395 18.1729C19.3066 16.4115 20.4114 13.817 20.4114 10.7347C20.4114 10.0175 20.3481 9.3293 20.2295 8.66484Z" fill="white"/>
</svg>
