<svg xmlns="http://www.w3.org/2000/svg" xmlns:xlink="http://www.w3.org/1999/xlink" version="1.1" width="12pt" height="12pt" viewBox="0 0 12 12">
<path transform="matrix(1,0,0,-1,0,12)" d="M9.833334 12C11.029934 12 12 11.029953 12 9.833333V2.166666C12 .970066 11.029934 0 9.833334 0H2.166667C.970047 0 0 .970066 0 2.166666V9.833333C0 11.029953 .970047 12 2.166667 12H9.833334ZM10.220333 1.065733 6.3498 4.8568C6.173067 5.0298 5.900067 5.0456 5.705867 4.904L5.650133 4.8568 1.778967 1.065933C1.900267 1.023266 2.030753 1 2.166667 1H9.833334C9.969 1 10.099267 1.023133 10.220333 1.065733ZM9.833334 11H2.166667C1.522333 11 1 10.477667 1 9.833333V2.166666C1 2.027733 1.024287 1.894466 1.06884 1.770866L4.950534 5.571333C5.505934 6.115133 6.378334 6.141 6.963867 5.648933L7.049467 5.571267 10.930934 1.7702C10.9756 1.894 11 2.027467 11 2.166666V9.833333C11 10.477667 10.477667 11 9.833334 11ZM8.168067 9.666666C8.997267 9.666666 9.669467 8.99446 9.669467 8.165253 9.669467 7.336053 8.997267 6.663867 8.168067 6.663867 7.338867 6.663867 6.666667 7.336053 6.666667 8.165253 6.666667 8.99446 7.338867 9.666666 8.168067 9.666666ZM8.168067 8.666666C7.891134 8.666666 7.666667 8.44218 7.666667 8.165253 7.666667 7.888333 7.891134 7.663847 8.168067 7.663847 8.445001 7.663847 8.669467 7.888333 8.669467 8.165253 8.669467 8.44218 8.445001 8.666666 8.168067 8.666666Z" fill="#95999f"/>
</svg>
