<svg xmlns="http://www.w3.org/2000/svg" xmlns:xlink="http://www.w3.org/1999/xlink" version="1.1" width="18pt" height="19.384217pt" viewBox="0 0 18 19.384217">
<path transform="matrix(1,0,0,-1,4.5,9.692047)" d="M7.815981 8.282374C6.973985 9.191436 5.797959 9.692047 4.499918 9.692047 3.194954 9.692047 2.015034 9.194465 1.176932 8.291028 .329744 7.37764-.083033 6.13628 .013888 4.795836 .205998 2.151294 2.218394 .000008 4.499918 .000008 6.781442 .000008 8.790377 2.150862 8.985516 4.794971 9.083735 6.1233 8.668362 7.362063 7.815981 8.282374Z" fill="#ffffff"/>
<path transform="matrix(1,0,0,-1,0,19.386704)" d="M16.615174 .002596H1.384825C1.185473 .000003 .988051 .041882 .806921 .125186 .625791 .208491 .46551 .331126 .337738 .484169 .056496 .820362-.056866 1.279435 .027074 1.743701 .392256 3.76951 1.531936 5.471243 3.323233 6.665873 4.914632 7.726373 6.93049 8.310059 9 8.310059 11.06951 8.310059 13.085368 7.72594 14.676766 6.665873 16.468064 5.471675 17.607745 3.769944 17.972926 1.744134 18.056866 1.279868 17.943505 .820795 17.662262 .484602 17.53453 .331481 17.374268 .208764 17.193137 .125383 17.012003 .042003 16.81456 .000055 16.615174 .002596Z" fill="#ffffff"/>
</svg>
