<svg xmlns="http://www.w3.org/2000/svg" xmlns:xlink="http://www.w3.org/1999/xlink" version="1.1" width="7pt" height="23pt" viewBox="0 0 7 23">
<path transform="matrix(1,0,0,-1,0,7)" d="M7 3.5C7 1.567003 5.432997 0 3.5 0 1.567003 0 0 1.567003 0 3.5 0 5.432997 1.567003 7 3.5 7 5.432997 7 7 5.432997 7 3.5Z" fill="#131313"/>
<path transform="matrix(1,0,0,-1,0,15)" d="M7 3.5C7 1.567003 5.432997 0 3.5 0 1.567003 0 0 1.567003 0 3.5 0 5.432997 1.567003 7 3.5 7 5.432997 7 7 5.432997 7 3.5Z" fill="#131313"/>
<path transform="matrix(1,0,0,-1,0,23)" d="M7 3.5C7 1.567003 5.432997 0 3.5 0 1.567003 0 0 1.567003 0 3.5 0 5.432997 1.567003 7 3.5 7 5.432997 7 7 5.432997 7 3.5Z" fill="#131313"/>
</svg>
